<?xml version="1.0" encoding="us-ascii" standalone="no"?><svg xmlns="http://www.w3.org/2000/svg" xmlns:xlink="http://www.w3.org/1999/xlink" contentStyleType="text/css" height="908px" preserveAspectRatio="none" style="width:505px;height:908px;background:#FFFFFF;" version="1.1" viewBox="0 0 505 908" width="505px" zoomAndPan="magnify"><defs/><g><!--cluster DriverKit driver--><g id="cluster_DriverKit driver"><path d="M93.5,473.47 L206.5,473.47 A3.75,3.75 0 0 1 209,475.97 L216,495.9583 L495.5,495.9583 A2.5,2.5 0 0 1 498,498.4583 L498,899.43 A2.5,2.5 0 0 1 495.5,901.93 L93.5,901.93 A2.5,2.5 0 0 1 91,899.43 L91,475.97 A2.5,2.5 0 0 1 93.5,473.47 " fill="none" style="stroke:#000000;stroke-width:1.5;"/><line style="stroke:#000000;stroke-width:1.5;" x1="91" x2="216" y1="495.9583" y2="495.9583"/><text fill="#000000" font-family="sans-serif" font-size="14" font-weight="bold" lengthAdjust="spacing" textLength="112" x="95" y="489.0052">DriverKit driver</text></g><!--cluster Karabiner-VirtualHIDDevice-Daemon--><g id="cluster_Karabiner-VirtualHIDDevice-Daemon"><path d="M94.5,127.49 L364.5,127.49 A3.75,3.75 0 0 1 367,129.99 L374,149.9783 L387.5,149.9783 A2.5,2.5 0 0 1 390,152.4783 L390,446.97 A2.5,2.5 0 0 1 387.5,449.47 L94.5,449.47 A2.5,2.5 0 0 1 92,446.97 L92,129.99 A2.5,2.5 0 0 1 94.5,127.49 " fill="none" style="stroke:#000000;stroke-width:1.5;"/><line style="stroke:#000000;stroke-width:1.5;" x1="92" x2="374" y1="149.9783" y2="149.9783"/><text fill="#000000" font-family="sans-serif" font-size="14" font-weight="bold" lengthAdjust="spacing" textLength="269" x="96" y="143.0252">Karabiner-VirtualHIDDevice-Daemon</text></g><!--cluster Client app--><g id="cluster_Client app"><path d="M8.5,6 L83.5,6 A3.75,3.75 0 0 1 86,8.5 L93,28.4883 L473.5,28.4883 A2.5,2.5 0 0 1 476,30.9883 L476,100.99 A2.5,2.5 0 0 1 473.5,103.49 L8.5,103.49 A2.5,2.5 0 0 1 6,100.99 L6,8.5 A2.5,2.5 0 0 1 8.5,6 " fill="none" style="stroke:#000000;stroke-width:1.5;"/><line style="stroke:#000000;stroke-width:1.5;" x1="6" x2="93" y1="28.4883" y2="28.4883"/><text fill="#000000" font-family="sans-serif" font-size="14" font-weight="bold" lengthAdjust="spacing" textLength="74" x="10" y="21.5352">Client app</text></g><!--entity IOService--><g id="elem_IOService"><ellipse cx="241" cy="537.47" fill="#F1F1F1" rx="8" ry="8" style="stroke:#181818;stroke-width:0.5;"/><text fill="#000000" font-family="sans-serif" font-size="14" lengthAdjust="spacing" textLength="63" x="209.5" y="568.0052">IOService</text></g><!--entity VirtualHIDDeviceRoot--><g id="elem_VirtualHIDDeviceRoot"><rect fill="#F1F1F1" height="46.4883" rx="2.5" ry="2.5" style="stroke:#181818;stroke-width:0.5;" width="185" x="148.5" y="626.47"/><rect fill="#F1F1F1" height="10" style="stroke:#181818;stroke-width:0.5;" width="15" x="313.5" y="631.47"/><rect fill="#F1F1F1" height="2" style="stroke:#181818;stroke-width:0.5;" width="4" x="311.5" y="633.47"/><rect fill="#F1F1F1" height="2" style="stroke:#181818;stroke-width:0.5;" width="4" x="311.5" y="637.47"/><text fill="#000000" font-family="sans-serif" font-size="14" lengthAdjust="spacing" textLength="145" x="163.5" y="660.0052">VirtualHIDDeviceRoot</text></g><!--entity VirtualHIDDeviceUserClient--><g id="elem_VirtualHIDDeviceUserClient"><rect fill="#F1F1F1" height="46.4883" rx="2.5" ry="2.5" style="stroke:#181818;stroke-width:0.5;" width="224" x="129" y="732.95"/><rect fill="#F1F1F1" height="10" style="stroke:#181818;stroke-width:0.5;" width="15" x="333" y="737.95"/><rect fill="#F1F1F1" height="2" style="stroke:#181818;stroke-width:0.5;" width="4" x="331" y="739.95"/><rect fill="#F1F1F1" height="2" style="stroke:#181818;stroke-width:0.5;" width="4" x="331" y="743.95"/><text fill="#000000" font-family="sans-serif" font-size="14" lengthAdjust="spacing" textLength="184" x="144" y="766.4852">VirtualHIDDeviceUserClient</text></g><!--entity VirtualHIDKeyboard--><g id="elem_VirtualHIDKeyboard"><rect fill="#F1F1F1" height="46.4883" rx="2.5" ry="2.5" style="stroke:#181818;stroke-width:0.5;" width="174" x="107" y="839.44"/><rect fill="#F1F1F1" height="10" style="stroke:#181818;stroke-width:0.5;" width="15" x="261" y="844.44"/><rect fill="#F1F1F1" height="2" style="stroke:#181818;stroke-width:0.5;" width="4" x="259" y="846.44"/><rect fill="#F1F1F1" height="2" style="stroke:#181818;stroke-width:0.5;" width="4" x="259" y="850.44"/><text fill="#000000" font-family="sans-serif" font-size="14" lengthAdjust="spacing" textLength="134" x="122" y="872.9752">VirtualHIDKeyboard</text></g><!--entity VirtualHIDPointing--><g id="elem_VirtualHIDPointing"><rect fill="#F1F1F1" height="46.4883" rx="2.5" ry="2.5" style="stroke:#181818;stroke-width:0.5;" width="166" x="316" y="839.44"/><rect fill="#F1F1F1" height="10" style="stroke:#181818;stroke-width:0.5;" width="15" x="462" y="844.44"/><rect fill="#F1F1F1" height="2" style="stroke:#181818;stroke-width:0.5;" width="4" x="460" y="846.44"/><rect fill="#F1F1F1" height="2" style="stroke:#181818;stroke-width:0.5;" width="4" x="460" y="850.44"/><text fill="#000000" font-family="sans-serif" font-size="14" lengthAdjust="spacing" textLength="126" x="331" y="872.9752">VirtualHIDPointing</text></g><!--entity serversock--><g id="elem_serversock"><ellipse cx="241" cy="191.49" fill="#F1F1F1" rx="8" ry="8" style="stroke:#181818;stroke-width:0.5;"/><text fill="#000000" font-family="sans-serif" font-size="14" lengthAdjust="spacing" textLength="137" x="172.5" y="222.0252">UNIX domain socket</text></g><!--entity virtual_hid_device_service_server--><g id="elem_virtual_hid_device_service_server"><rect fill="#F1F1F1" height="46.4883" rx="2.5" ry="2.5" style="stroke:#181818;stroke-width:0.5;" width="265" x="108.5" y="280.49"/><rect fill="#F1F1F1" height="10" style="stroke:#181818;stroke-width:0.5;" width="15" x="353.5" y="285.49"/><rect fill="#F1F1F1" height="2" style="stroke:#181818;stroke-width:0.5;" width="4" x="351.5" y="287.49"/><rect fill="#F1F1F1" height="2" style="stroke:#181818;stroke-width:0.5;" width="4" x="351.5" y="291.49"/><text fill="#000000" font-family="sans-serif" font-size="14" lengthAdjust="spacing" textLength="225" x="123.5" y="314.0252">virtual_hid_device_service_server</text></g><!--entity io_service_client--><g id="elem_io_service_client"><rect fill="#F1F1F1" height="46.4883" rx="2.5" ry="2.5" style="stroke:#181818;stroke-width:0.5;" width="151" x="165.5" y="386.98"/><rect fill="#F1F1F1" height="10" style="stroke:#181818;stroke-width:0.5;" width="15" x="296.5" y="391.98"/><rect fill="#F1F1F1" height="2" style="stroke:#181818;stroke-width:0.5;" width="4" x="294.5" y="393.98"/><rect fill="#F1F1F1" height="2" style="stroke:#181818;stroke-width:0.5;" width="4" x="294.5" y="397.98"/><text fill="#000000" font-family="sans-serif" font-size="14" lengthAdjust="spacing" textLength="111" x="180.5" y="420.5152">io_service_client</text></g><!--entity pqrs::karabiner::driverkit::virtual_hid_device_service::client--><g id="elem_pqrs::karabiner::driverkit::virtual_hid_device_service::client"><rect fill="#F1F1F1" height="46.4883" rx="2.5" ry="2.5" style="stroke:#181818;stroke-width:0.5;" width="439" x="21.5" y="41"/><rect fill="#F1F1F1" height="10" style="stroke:#181818;stroke-width:0.5;" width="15" x="440.5" y="46"/><rect fill="#F1F1F1" height="2" style="stroke:#181818;stroke-width:0.5;" width="4" x="438.5" y="48"/><rect fill="#F1F1F1" height="2" style="stroke:#181818;stroke-width:0.5;" width="4" x="438.5" y="52"/><text fill="#000000" font-family="sans-serif" font-size="14" lengthAdjust="spacing" textLength="399" x="36.5" y="74.5352">pqrs::karabiner::driverkit::virtual_hid_device_service::client</text></g><!--link IOService to VirtualHIDDeviceRoot--><g id="link_IOService_VirtualHIDDeviceRoot"><path d="M241,546.39 C241,562.88 241,601.4 241,626.19 " fill="none" id="IOService-VirtualHIDDeviceRoot" style="stroke:#181818;stroke-width:1.0;"/></g><!--link VirtualHIDDeviceRoot to VirtualHIDDeviceUserClient--><g id="link_VirtualHIDDeviceRoot_VirtualHIDDeviceUserClient"><path d="M241,673.38 C241,690.91 241,709.05 241,726.57 " fill="none" id="VirtualHIDDeviceRoot-to-VirtualHIDDeviceUserClient" style="stroke:#181818;stroke-width:1.0;"/><polygon fill="#181818" points="241,732.57,245,723.57,241,727.57,237,723.57,241,732.57" style="stroke:#181818;stroke-width:1.0;"/></g><!--link VirtualHIDDeviceUserClient to VirtualHIDKeyboard--><g id="link_VirtualHIDDeviceUserClient_VirtualHIDKeyboard"><path d="M230.8,779.87 C222.92,797.4 214.5211,816.068 206.6411,833.588 " fill="none" id="VirtualHIDDeviceUserClient-to-VirtualHIDKeyboard" style="stroke:#181818;stroke-width:1.0;"/><polygon fill="#181818" points="204.18,839.06,211.5197,832.4928,206.231,834.5,204.2237,829.2112,204.18,839.06" style="stroke:#181818;stroke-width:1.0;"/></g><!--link VirtualHIDDeviceUserClient to VirtualHIDPointing--><g id="link_VirtualHIDDeviceUserClient_VirtualHIDPointing"><path d="M275.28,779.87 C301.79,797.4 333.2961,818.2293 359.7761,835.7493 " fill="none" id="VirtualHIDDeviceUserClient-to-VirtualHIDPointing" style="stroke:#181818;stroke-width:1.0;"/><polygon fill="#181818" points="364.78,839.06,359.4813,830.758,360.6101,836.3011,355.067,837.4298,364.78,839.06" style="stroke:#181818;stroke-width:1.0;"/></g><!--link serversock to virtual_hid_device_service_server--><g id="link_serversock_virtual_hid_device_service_server"><path d="M241,200.42 C241,216.91 241,255.42 241,280.21 " fill="none" id="serversock-virtual_hid_device_service_server" style="stroke:#181818;stroke-width:1.0;"/></g><!--link virtual_hid_device_service_server to io_service_client--><g id="link_virtual_hid_device_service_server_io_service_client"><path d="M241,327.41 C241,344.93 241,363.08 241,380.59 " fill="none" id="virtual_hid_device_service_server-to-io_service_client" style="stroke:#181818;stroke-width:1.0;"/><polygon fill="#181818" points="241,386.59,245,377.59,241,381.59,237,377.59,241,386.59" style="stroke:#181818;stroke-width:1.0;"/></g><!--link io_service_client to IOService--><g id="link_io_service_client_IOService"><path d="M241,433.9 C241,462.38 241,503.77 241,522.5 " fill="none" id="io_service_client-to-IOService" style="stroke:#181818;stroke-width:1.0;"/><polygon fill="#181818" points="241,528.5,245,519.5,241,523.5,237,519.5,241,528.5" style="stroke:#181818;stroke-width:1.0;"/></g><!--link pqrs::karabiner::driverkit::virtual_hid_device_service::client to serversock--><g id="link_pqrs::karabiner::driverkit::virtual_hid_device_service::client_serversock"><path d="M241,87.93 C241,116.4 241,157.8 241,176.52 " fill="none" id="pqrs::karabiner::driverkit::virtual_hid_device_service::client-to-serversock" style="stroke:#181818;stroke-width:1.0;"/><polygon fill="#181818" points="241,182.52,245,173.52,241,177.52,237,173.52,241,182.52" style="stroke:#181818;stroke-width:1.0;"/></g><!--SRC=[bP71QW8n48RlUOfXJ_QmBv23b-wXoq9RAaf1P1atWnrMapH95qhntHiJrArQIc_9pF_FvFzYiUjnGr1KZWTo3GTGwLJ0bm2Ot47zD2CtS4TGbh1Si0iVk7segueEnHTZmYeARpUYPNhTcdjozricVTivQb_w6_fS6tJglxvdmpgmtgp4NWXxZDoWmpLhSkNbgB92sXbzOb3C7-jNK6Q7hC6RhgTG07g86oEgGo7gpfT4QiWpspTMhKfJMvz1jbcPGlojobdOdEhT6TrrDQd7l_OZSSO3Q6sEjhJlpalP7q58cJ-_vo3bxq-JShnj164llW40]--></g></svg>